=====================================================================================
                                 The A-Team 2010
=====================================================================================


A group of Iraq War veterans looks to clear their name with the U.S. military, who suspect the four men of committing a 

crime for which they were framed.
  
http://www.imdb.com/title/tt0429493/

IMDB Rating.......:7.6/10                        
Video Codec.......:XVID                                         
Release Date......:06/11/10
Audio Codec.......:MP3                                          
Theatre Date......:06/11/10
Audio Bitrate.....:128                                          
Subtitles.........:Spanish,Frencah,Portuguese                                      Resolution........:704 x 304                                    
IMDb URL..........:http://www.imdb.com/title/tt0429493/


DETAILS:

Video
Format                           : MPEG-4 Visual
Format profile                   : Streaming Video@L1
Format settings, BVOP            : Yes
Format settings, QPel            : No
Format settings, GMC             : No warppoints
Format settings, Matrix          : Default
Codec ID                         : XVID
Codec ID/Hint                    : XviD
Bit rate                         : 1 687 Kbps
Width                            : 704 pixels
Height                           : 304 pixels
Display aspect ratio             : 2.35
Frame rate                       : 25.000 fps
Resolution                       : 24 bits
Colorimetry                      : 4:2:0
Scan type                        : Progressive
Bits/(Pixel*Frame)               : 0.315
Stream size                      : 1.27 GiB (92%)
Writing library                  : XviD 50

Audio
Format                           : MPEG Audio
Format version                   : Version 1
Format profile                   : Layer 3
Codec ID                         : 55
Codec ID/Hint                    : MP3
Bit rate mode                    : Constant
Bit rate                         : 128 Kbps
Minimum bit rate                 : 128 Kbps
Channel(s)                       : 2 channels
Sampling rate                    : 44.1 KHz
Resolution                       : 16 bits
Stream size                      : 98.5 MiB (7%)
Alignment                        : Split accross interleaves
Interleave, duration             : 40 ms (1.00 video frame)
Interleave, preload duration     : 500 ms
